<?xml version="1.0" encoding="UTF-8" standalone="no"?>
<svg
xmlns="http://www.w3.org/2000/svg"
viewBox="0.188 -0.335 184 382"
height="382"
width="184">

<path
fill="#000000"
d="m 2.599754,0.25093749 c -0.115,0.003797 -0.2199,0.0220156 -0.3125,0.0566406 -0.807,1.43900001 -0.9004,3.13017191 -0.9004,4.70117191 0,3.839 -0.3008,7.464562 -0.3008,11.101562 0,1.862001 0.1344,3.791563 -0.1,5.601563 -0.453,3.499 -0.4406,7.172734 -0.5996,10.802734 -0.08,1.823 -0.1806,3.775563 -0.1,5.601563 0.083,1.896 -0.109,3.732 0,5.5 0.08,1.312 0.72979996,2.61 0.79879996,4 0.159,3.186 0.6108,6.033344 0.7988,8.902344 0.1,1.531 0.1692,3.094172 0.2012,4.701172 0.028,1.406999 0.313,2.771781 0.5,4.300781 0.361,2.952 0.2606,6.130562 0.5996,9.101562 0.173,1.513 0.2696,3.124781 0.5996,4.300781 0.546,1.944 2.0006,3.305954 3.1016,5.001954 0.463,0.713 0.9454,1.420609 1.4004,2.099609 0.502,0.747 1.0766,1.311 1.5996,2 1.003,1.321 1.8647,2.819172 2.8007,4.201172 2.896,4.271 5.9222,8.352903 8.7012,12.503903 1.38,2.059 3.1064,4.09761 4.4024,6.09961 0.463,0.715 0.8854,1.55517 1.4004,2.20117 2.4173,2.09857 5.3727,3.69744 7.7011,5.50196 0.834,0.655 1.8132,1.24039 2.2012,1.90039 0.492,0.838 0.5458,1.68778 0.7988,2.80078 0.167,0.733 0.5102,1.47417 0.7012,2.20117 0.199,0.752 0.269,1.61039 0.5,2.40039 0.258,0.878 0.5204,1.609 0.4004,2.5 -0.148,1.086 -1.5336,1.57161 -2.6016,2.09961 -4.153,2.054 -7.5189,4.57795 -10.5019,7.50195 -0.763,0.747 -1.5798,1.45118 -2.3008,2.20118 -0.736,0.767 -1.322,1.675 -2,2.5 -0.724,0.88 -1.462,1.65495 -2,2.50195 -1.149,1.809 -2.2256,3.77839 -3.1016,5.90039 -1.754,4.251 -3.0996,9.06034 -3.0996,14.90234 0,2.83 -0.077,5.81235 0.1,8.90235 0.152,2.663 0.5532,5.42973 0.6992,8.30273 0.072,1.414 0.059,2.88378 0.2012,4.30078 0.697,6.969 0.1684,14.71869 -1.0996,20.80469 -0.497,2.382 -1.1072,4.83374 -1.7012,7.30273 -0.588,2.44501 -1.0696,4.9214 -1.5996,7.4004 -0.558,2.611 -1.0041,5.00173 -1.7011,7.30273 -0.606,1.997 -0.7768,4.081 -0.3008,6 0.137,0.553 0.4059,1.12973 0.5019,1.80273 0.139,0.983 0.1379,1.764 0.2989,2.5 0.543,2.495 1.7703,3.83822 3.4003,5.19922 1.043,0.873 2.1346,1.77257 3.6016,2.10157 1.402,0.313 3.425,0.28917 5.5,0.20117 3.348,-0.141 6.4501,-1.01817 9.2031,-2.20117 5.691,-2.445 10.2578,-4.86757 14.8028,-8.10157 3.281,-2.335 6.4931,-5.08895 9.7031,-7.50195 2.245,-1.688 4.3778,-2.89956 7.3008,-4.10156 1.167,-0.481 3.4628,-1.68956 4.3008,-1.10157 0.69,0.48401 0.4947,2.78796 0.3007,4.50196 -0.213,1.872 -0.4766,3.41617 -0.5996,4.70117 -0.173,1.809 -0.1348,3.44139 -0.3008,4.90039 -0.086,0.75 -0.3043,1.46922 -0.4003,2.19922 -0.11,0.831 -0.057,1.66256 -0.1,2.60156 -0.154,3.305 -0.7283,6.39452 -0.9003,9.60352 -0.083,1.55 -0.3967,3.12322 -0.5997,4.69922 -0.208,1.625 -0.2693,3.28139 -0.4003,4.90039 -0.122,1.508 -0.5087,3.05756 -0.5997,4.60156 -0.199,3.39 -0.6443,6.51812 -0.9003,9.70312 -0.128,1.58 -0.5007,3.15718 -0.5997,4.70118 -0.101,1.566 -0.3126,3.07756 -0.5996,4.60156 -0.303,1.601 -0.2819,3.22778 -0.5019,4.80078 -0.215,1.543 -0.4982,3.07956 -0.6992,4.60156 -0.206,1.569 -0.5512,3.09056 -0.7012,4.60157 -0.334,3.34899 -1.0996,5.92834 -1.0996,9.40234 0,3.586 0.478,6.32995 2,8.50195 2.871,4.097 8.0319,5.98656 13.0039,8.10156 2.304,0.98 4.8189,2.16596 7.0019,3.50196 2.326,1.424 4.3314,2.87322 6.9004,3.69922 1.298,0.418 2.899,0.52517 4.5,0.70117 1.743,0.192 3.412,0.22761 5.002,0.0996 1.353,-0.11 3.0653,-0.17344 4.902296,-0.39844 1.294,-0.16 3.53,-0.99056 4.5,-0.60156 1.438,0.58 -0.1414,3.97356 -0.4004,4.60156 -0.556,1.35 -0.8882,2.46578 -1.6992,3.80078 -1.571,2.591 -2.9259,4.59556 -5.001896,6.10156 -2.094,1.519 -4.7388,2.98378 -8.3028,2.30079 -2.964,-0.566 -6.2369,-1.12061 -9.0019,-2.09961 -2.659,-0.943 -5.3194,-1.96057 -7.9004,-3.10157 -3.899,-1.724 -7.493,-3.61456 -11.002,-5.60156 -1.143,-0.648 -2.2167,-1.45317 -3.3027,-2.20117 -4.572,-3.146 -8.1813,-6.28017 -11.9023,-10.20117 -5.33,-5.618 -9.4116,-12.86352 -17.6036,-15.60352 -1.428,-0.478 -2.8727,-0.89917 -4.3007,-1.20117 -3.524,-0.745 -6.3762,0.69339 -8.7032,1.90039 -2.572,1.334 -4.5787,2.77878 -6.3007,4.80078 -0.823,0.966 -1.4608,2.10278 -2.3008,3.30078 -0.719,1.028 -1.6572,2.05278 -2.1992,3.30078 -0.753,1.733 -1.3128,4.19496 -0.8008,6.00196 0.996,3.522 2.9505,6.36373 5.1015,8.80273 2.182,2.475 4.8354,4.75756 7.4024,6.60156 1.364,0.98 2.605,2.084 4,3 1.412,0.927 2.7862,1.89278 4.2012,2.80079 4.314,2.77199 8.9273,5.16551 13.4023,7.60351 1.486,0.81 2.9869,1.688 4.5019,2.5 6.156,3.295 12.4967,6.10517 18.8047,9.20117 3.173,1.558 6.653,2.70496 10.002,4.00196 1.658,0.642 3.233,1.46239 5,1.90039 2.731,0.678 5.6759,1.45 8.5019,2 3.167,0.616 6.081,0.75056 9.502,0.60156 4.358996,-0.192 7.999496,-1.26334 11.103496,-2.90235 1.587,-0.83799 3.0444,-1.57356 4.4004,-2.60156 1.336,-1.011 2.5947,-1.96622 3.8027,-3.19922 2.868,-2.93 5.0436,-6.96134 6.5996,-10.90234 0.329,-0.831 0.5924,-1.70961 0.9004,-2.59961 1.49,-4.318 2.889,-8.83095 3.502,-14.00195 0.122,-1.028 0.386,-2.03591 0.5,-3.00391 0.217,-1.824 0.33,-4.39995 0.5,-6.50195 0.169,-2.096 -0.2206,-4.99361 0.4004,-6.59961 0.431,-1.114 2.4886,-2.01956 3.5996,-2.60156 2.892,-1.514 4.7987,-2.76896 7.3027,-4.50196 3.652,-2.528 6.4246,-4.92356 9.6016,-8.10156 3.051,-3.05 4.5019,-7.13212 4.5019,-13.20312 0,-1.896 -0.001,-3.89118 -0.1992,-5.70118 -0.086,-0.79 -0.36,-1.61739 -0.5,-2.40039 -0.165,-0.928 -0.1538,-1.83717 -0.3008,-2.70117 -0.139,-0.81 -0.373,-1.61339 -0.5,-2.40039 -0.142,-0.877 -0.309,-1.729 -0.5,-2.5 -1.225,-4.935 -2.5117,-9.34034 -3.8007,-13.90234 -0.41,-1.448 -1.1016,-2.85778 -1.6016,-4.30078 -1.021,-2.941 -2.0386,-5.85518 -3.1016,-8.70118 -3.226,-8.65 -6.8524,-16.81281 -10.4004,-25.00781 -1.741,-4.017 -3.8565,-8.16756 -5.6035,-12.10156 -0.594,-1.34 -1.2454,-2.69995 -1.8984,-4.00195 -2.177,-4.329 -4.4624,-9.30113 -6.9024,-13.70313 -0.414,-0.747 -0.9033,-1.35861 -0.9003,-2.09961 0.01,-0.978 0.8487,-2.25295 1.3007,-3.50195 0.43,-1.188 0.9472,-2.51717 1.2012,-3.70117 0.565,-2.638 0.8984,-5.62639 0.8984,-8.90039 l 0,-9.70313 c 0,-3.213 -0.602,-6.04378 -1,-8.80078 -0.367,-2.537 -1.164,-5.23513 -2,-7.70313 -0.832,-2.458 -1.7993,-4.90234 -2.9003,-6.90234 -1.583,-2.875 -3.6474,-6.27717 -5.9004,-8.70117 -0.56,-0.603 -2.1504,-1.765 -1.9004,-3 0.28,-1.386 3.5769,-1.45656 5.0019,-2.10156 1.63,-0.737 3.1604,-2.18683 4.9004,-3.29883 1.69,-1.082 3.35,-2.33074 5,-3.30274 2.622,-1.544 4.9874,-3.39539 7.4024,-4.90039 1.771,-1.104 3.3619,-2.23778 5.0019,-3.30078 2.531,-1.645 5.094,-3.20539 7.502,-4.90039 1.633,-1.15 3.383,-2.14978 5,-3.30078 1.642,-1.169 3.4559,-2.08678 5.0019,-3.30078 1.103,-0.866 2.0608,-2.36617 2.8008,-4.20117 0.7,-1.737 1.6278,-3.36074 2.2988,-4.80274 0.749,-1.61 1.5112,-3.231388 2.2012,-4.900388 0.699,-1.692 1.7614,-3.211172 2.4004,-4.701172 0.359,-0.837 0.637,-1.707 1,-2.5 0.387,-0.839 0.8362,-1.586391 1.2012,-2.400391 1.477,-3.289 2.8565,-6.557562 4.6015,-9.601562 0.454,-0.792 0.9132,-1.436781 1.1992,-2.300781 0.886,-2.673 2.3232,-4.847344 3.2012,-7.402344 0.603,-1.756 1.0892,-3.557344 1.6992,-5.402344 0.591,-1.784 1.1482,-3.595391 1.7012,-5.40039 0.561,-1.834001 1.0236,-3.693 1.5996,-5.5 0.558,-1.75 1.2298,-3.499782 1.8008,-5.300782 0.557,-1.759 0.8999,-3.648515 1.5019,-5.603515 0.249,-0.811 0.687,-1.58 1,-2.5 0.293,-0.866 0.4589,-1.847782 0.7989,-2.800782 0.425,-1.193 1.8125,-4.555171 1.1015,-5.701171 -1.179,-0.503001 -2.5031,-0.26361 -3.7011,-0.09961 -1.256,0.172 -2.4628,0.338391 -3.8008,0.400391 -2.583,0.12 -5.4624,0.091 -7.4004,1 -1.366,0.64 -2.6966,1.64 -4.1016,2.5 -4.1,2.509 -8.1627,5.124515 -12.3047,7.603515 -1.326,0.793 -2.604,1.74761 -4,2.59961 -2.817,1.719 -5.2655,3.201562 -8.1035,5.101562 -1.474,0.988 -3.2385,1.64061 -4.1015,2.59961 -0.543,0.603 -0.973,1.520781 -1.5,2.300781 -1.59,2.353 -2.7828,4.887172 -4.3008,7.201172 -0.508,0.774 -0.8208,1.697953 -1.3008,2.501953 -0.492,0.824 -1.014,1.61039 -1.5,2.40039 -1.017,1.659001 -1.9464,3.300782 -2.9004,4.800782 -0.995,1.565 -1.9828,3.125781 -2.8008,4.800781 -0.828,1.696 -1.9614,3.175781 -2.9004,4.800781 -0.943,1.629 -1.8687,3.263344 -2.8007,4.902344 -0.456,0.8 -1.092,1.488828 -1.5,2.298828 -0.45,0.891 -0.6406,1.884781 -1.1016,2.800781 -0.404,0.805 -0.9564,1.531391 -1.3984,2.400391 -0.413,0.81 -0.8022,1.697563 -1.2012,2.601562 -0.779,1.760001 -1.7956,3.412563 -2.5996,5.101558 -0.838,1.75701 -1.544,3.50518 -2.502,5.20118 -0.929,1.648 -1.7812,3.367 -2.6992,5 -0.875,1.556 -1.9454,3.07217 -2.900396,4.70117 -0.473,0.807 -0.8048,1.65795 -1.3008,2.50195 -1.503,2.556 -2.6441,4.68739 -4.2011,7.40039 -0.838,1.46 -2.1618,4.21635 -3.3008,4.40235 -0.704,0.114 -1.4828,-0.235 -2.3008,-0.5 -2.253,-0.731 -4.6226,-1.28496 -7.1016,-1.50196 -1.745,-0.153 -3.4511,-0.345 -5.2011,-0.5 -1.816,-0.161 -3.6522,-0.0286 -5.7012,-0.0996 -3.59,-0.124 -7.2427,-0.0996 -11.3027,-0.0996 -2.542,0 -5.9124,-0.11678 -8.4024,0.19922 -1.03,0.131 -1.8926,0.31361 -2.5996,0.0996 -1.472,-0.445 -1.4564,-3.285 -1.9004,-5.5 -0.221,-1.101 -0.2504,-2.12756 -0.4004,-3.10156 -0.161,-1.047 -0.4686,-2.022 -0.5996,-3 -0.281,-2.099 -0.6824,-4.08356 -0.9004,-6.10156 -0.108,-0.994 -0.303,-1.98496 -0.5,-3.00196 -0.207,-1.063 -0.2324,-2.15321 -0.4004,-3.19921 -0.155,-0.972 -0.4975,-1.9014 -0.6015,-2.9004 -0.223,-2.152995 -0.6365,-4.144558 -0.8985,-6.101558 -0.14,-1.049 -0.4045,-1.997953 -0.6015,-3.001953 -0.197,-1.008 -0.1079,-2.100218 -0.2989,-3.199218 -0.171,-0.982 -0.5096,-1.918391 -0.5996,-2.900391 -0.201,-2.186 -0.122,-4.423563 -0.5,-6.601562 -0.362,-2.081 -0.3115,-4.234344 -0.6015,-6.402344 -0.134,-1.002 -0.433,-1.969 -0.5,-3 -0.072,-1.122 -0.014,-2.256344 -0.1992,-3.402344 -0.154,-0.955 -0.4846,-1.915391 -0.6016,-2.900391 -0.378,-3.193 -1.2616,-6.213953 -1.5996,-9.001953 -0.128,-1.052 -0.1654,-2.091609 -0.4004,-3.099609 -0.242,-1.036 -0.381,-1.943953 -0.5,-3.001953 -0.11,-0.973 -0.3936,-1.887391 -0.5996,-2.900391 -0.21,-1.031 -0.2044,-2.138219 -0.4004,-3.199219 -0.313,-1.705 -0.7046,-3.855343 -1.0996,-5.902343 -0.424,-2.2 -0.4532,-4.453344 -1.2012,-5.902344 -0.368,-0.713 -1.0606,-1.37661 -1.5996,-2.099609 -1.597,-2.141001 -3.2597,-4.411344 -4.8027,-6.402344 -3.313,-4.278 -6.4016,-8.546735 -9.6016,-12.8027346 -1.031,-1.372 -1.9062,-3.0067813 -3.1992,-4.3007813 -1.591,-1.59 -5.1076,-2.5816093 -7.6016,-3.5996093 -0.7997,-0.32637511 -2.0838,-0.98360943 -2.8886,-0.95703131 z M 55.861454,231.22164 c -0.7857,0.5305 -1.5384,1.07742 -2.2559,1.63867 -2.102,1.6445 -4.0551,3.24619 -6.0312,4.77344 1.9742,-1.52599 3.9233,-3.12703 6.0234,-4.76953 0.7197,-0.56295 1.4754,-1.11058 2.2637,-1.64258 z m -8.293,6.41602 c -1.4803,1.14389 -2.973,2.24702 -4.5527,3.29492 1.579,-1.04806 3.0729,-2.15124 4.5527,-3.29492 z" />

<path
fill="#301B21"
d="M126.912,68.123c0.344-0.522,0.756-0.88,1.102-1.401c-0.12,1.248-0.785,2.815-1.901,3.401 c-0.389,1.378-1.11,2.423-2,3.301c0.008-1.398,1.347-2.308,2-3.501C126.437,69.332,126.535,68.698,126.912,68.123z" />

<path
fill="#301B21"
d="M123.612,74.224c-0.277,1.39-0.781,2.554-1.801,3.201C122.041,75.985,122.55,74.828,123.612,74.224z" />

<path
fill="#301B21"
d="M113.31,92.228c0.085-0.018,0.095,0.039,0.1,0.1c-0.23,1.132-0.872,2.049-1.3,3.101 c-0.297,0.729-0.459,1.743-1.3,1.9C111.438,95.423,112.066,93.519,113.31,92.228z" />

<path
fill="#301B21"
d="M108.608,101.13c0.247-0.441,0.511-1.082,1.102-1.1c-0.159,2.091-1.491,3.778-2.302,5.501 c-0.274,0.585-0.476,1.269-0.8,1.8c-0.365,0.599-1.035,1.011-1.4,1.601c-0.774,1.248-0.927,2.943-2.301,3.801 c0.332-1.174,0.954-2.33,1.601-3.401c0.641-1.062,1.073-2.169,1.701-3.201c0.643-1.059,1.129-2.114,1.6-3.301 C108.02,102.3,108.318,101.65,108.608,101.13z" />

<path
fill="#c2baba"
d="m 106.809,188.15 c 0.504,1.705 0.504,6.493 0,8.302 -0.555,1.99 -1.797,3.197 -3.201,4.601 -1.563,1.563 -2.751,2.862 -5.001,3.401 -1.188,0.284 -2.849,0.2 -4.101,0.2 -1.343,0 -2.853,0.055 -4.001,-0.3 -0.546,-0.169 -1.105,-0.558 -1.7,-0.901 -1.854,-1.066 -4.005,-3.239 -4.901,-4.701 -1.184,-1.931 -1.4,-3.207 -1.4,-6.401 0,-2.694 0.19,-4.401 1.101,-6.002 0.518,-0.912 1.445,-1.845 2.3,-2.7 1.754,-1.754 3.178,-3.216 6.402,-3.501 3.058,-0.27 6.503,-0.136 8.502,1 0.983,0.559 1.837,1.538 2.7,2.401 1.336,1.337 2.728,2.671 3.3,4.601 z" />

<path
fill="#f73d95"
d="m 16.688,172.946 c -0.121,-1.754 -0.189,-3.719 0.1,-5.501 0.133,-0.814 0.485,-1.608 0.601,-2.4 0.154,-1.053 -0.005,-2.116 0.2,-3.201 0.137,-0.732 0.525,-1.426 0.7,-2.201 0.832,-3.695 2.352,-6.92 4.101,-9.902 0.332,-0.566 0.835,-1.043 1.2,-1.6 0.388,-0.593 0.599,-1.284 1,-1.801 0.613,-0.789 1.483,-1.382 2.201,-2.1 1.409,-1.409 2.733,-2.931 4.301,-4.201 2.292,-1.857 5.013,-3.373 7.901,-4.801 1.906,-0.942 3.952,-1.623 5.902,-2.501 0.892,-0.401 1.709,-1.239 2.6,-1.5 1.438,-0.421 3.651,-0.257 5.502,-0.4 0.954,-0.074 1.868,-0.05 2.8,-0.1 0.864,-0.047 1.703,-0.299 2.501,-0.4 2.724,-0.347 5.822,-0.236 8.502,0 0.862,0.076 1.672,0.315 2.5,0.4 1.973,0.202 3.957,-0.03 6.002,0.2 1.921,0.216 4.004,-0.176 6.001,0.2 0.563,0.106 1.229,0.525 2.001,0.7 0.741,0.168 1.454,0.254 2.2,0.5 1.376,0.453 3.502,0.806 3.7,1.701 0.248,1.116 -1.184,2.714 -1.601,3.5 -0.648,1.224 -1.351,2.27 -1.2,3.701 0.841,0.11 1.418,-0.67 1.801,-1.2 0.928,-1.285 1.362,-2.8 2.2,-4.201 0.401,-0.67 1.022,-1.15 1.4,-1.8 0.373,-0.641 0.619,-1.337 1.001,-2.001 0.623,-1.082 1.324,-2.055 1.9,-3.201 1.1,-2.187 2.514,-4.312 3.7,-6.501 0.868,-1.601 1.543,-3.171 2.602,-4.601 0.885,-1.198 1.436,-2.842 2.3,-4.201 3.61664,-5.32187 6.19001,-11.33577 9.001,-16.904 0.471,-0.956 0.849,-1.931 1.3,-2.901 1.80154,-3.864191 3.65761,-7.297657 5.802,-10.702 2.73634,-4.252658 4.93452,-8.97922 7.702,-12.903 1.151,-1.618 1.878,-3.517 3.001,-5.201 0.539,-0.808 1.045,-1.68 1.501,-2.601 0.452,-0.915 1.03,-1.645 1.601,-2.5 0.829,-1.243 1.459,-2.608 2.3,-3.901 0.307,-0.472 0.678,-1.038 1.001,-1.301 1.21,-0.985 2.729,-1.652 4.101,-2.6 0.668,-0.462 1.301,-0.902 2,-1.3 1.399,-0.796 2.665,-1.633 4.102,-2.501 0.661,-0.4 1.224,-0.974 1.899,-1.4 0.688,-0.433 1.503,-0.681 2.201,-1.101 0.688,-0.413 1.338,-0.874 2,-1.3 1.39,-0.893 2.706,-1.752 4.001,-2.6 0.669,-0.438 1.3,-0.913 2.001,-1.301 0.696,-0.386 1.482,-0.679 2.2,-1.1 0.69,-0.405 1.281,-0.918 1.901,-1.4 1.712,-1.332 4.145,-2.681 6.4,-3.501 1.361,-0.495 3.621,-0.193 5.701,-0.5 1.379,-0.204 4.092,-0.908 4.701,-0.1 0.536,0.71 -0.269,3.277 -0.6,4.401 -0.88,2.99 -1.852,5.162 -2.7,8.002 -0.227,0.756 -0.192,1.574 -0.4,2.3 -0.185,0.643 -0.613,1.211 -0.8,1.801 -0.341,1.067 -0.5,2.154 -0.901,3.2 -1.11,2.905 -1.788,6.12 -2.8,9.302 -0.623,1.958 -1.201,4.132 -2.101,6.002 -1.416,2.942 -2.209,5.749 -4.901,7.401 -0.47,0.289 -0.883,0.447 -1.3,0.801 -0.371,0.314 -0.699,0.692 -1.102,1 -0.426,0.327 -0.859,0.513 -1.3,0.8 -0.422,0.276 -0.711,0.648 -1.1,1 -0.809,0.731 -1.741,1.119 -2.501,1.701 -1.034,0.791 -1.758,1.773 -2.9,2.5 -1.082,0.689 -1.936,1.596 -3.001,2.301 -0.562,0.371 -1.095,0.665 -1.6,1.1 -0.46,0.395 -0.89,0.85 -1.401,1.2 -0.541,0.37 -1.194,0.586 -1.7,1 -0.461,0.378 -0.794,0.93 -1.3,1.301 -0.554,0.406 -1.189,0.609 -1.701,1 -0.476,0.364 -0.817,0.845 -1.3,1.3 -0.951,0.899 -2.16,1.382 -3.101,2.201 -0.493,0.43 -0.889,0.959 -1.4,1.3 -0.549,0.366 -1.095,0.574 -1.6,1 -0.476,0.401 -0.891,0.945 -1.401,1.301 -0.51,0.356 -1.191,0.502 -1.7,0.9 -1.27,0.992 -2.094,2.578 -3.201,4.101 -0.537,0.74 -0.868,1.477 -1.3,2.3 -0.42,0.803 -1.036,1.406 -1.501,2.101 -0.495,0.741 -0.867,1.535 -1.399,2.3 -0.95,1.363 -1.962,2.795 -2.801,4.401 -0.826,1.583 -1.892,2.928 -2.9,4.401 -0.495,0.723 -0.75,1.596 -1.2,2.401 -0.411,0.734 -1.043,1.362 -1.501,2.1 -0.936,1.511 -1.87,2.781 -2.9,4.301 -0.476,0.701 -0.717,1.549 -1.2,2.401 -0.359,0.632 -1.021,1.349 -1.5,2.1 -1.196,1.873 -1.712,1.879 -4.001,2.501 -3.155,0.857 -6.613,1.841 -9.803,2.901 -1.233,0.409 -2.334,1.235 -2.101,2.8 1.9,0.76 2.924,-0.975 4.902,-0.8 1.109,0.098 2.001,1.285 2.8,2.1 1.642,1.676 2.917,3.326 4.201,5.202 0.332,0.484 0.576,1.041 0.899,1.5 0.327,0.463 0.743,0.856 1.001,1.3 0.561,0.968 1.072,2.233 1.601,3.301 0.525,1.064 1.227,2.18 1.6,3.301 0.604,1.816 1.223,3.636 1.801,5.501 0.195,0.632 0.48,1.231 0.601,1.8 0.127,0.606 0.08,1.28 0.199,1.901 0.138,0.703 0.485,1.369 0.601,2 0.162,0.893 0.077,1.799 0.2,2.601 0.123,0.804 0.472,1.531 0.6,2.3 0.331,1.99 0.1,4.506 0.1,6.602 0,2.278 0.118,4.542 -0.1,6.501 -0.106,0.957 -0.34,1.916 -0.5,2.901 -0.157,0.97 -0.19,2.023 -0.4,2.901 -0.419,1.753 -1.111,3.441 -1.699,4.901 -1.228,3.045 -3.045,5.746 -5.303,8.002 -2.301,2.301 -4.545,4.396 -7.2,6.101 -0.705,0.453 -1.471,0.781 -2.201,1.2 -0.689,0.396 -1.323,0.906 -2,1.301 -1.481,0.862 -2.966,1.379 -4.602,2 -0.789,0.3 -1.506,0.783 -2.301,1.1 -0.807,0.323 -1.692,0.485 -2.5,0.801 -0.794,0.31 -1.491,0.786 -2.301,1 -4.211,1.112 -8.681,2.336 -13.203,3.401 -1.776,0.417 -3.493,0.956 -5.301,1.3 -2.321,0.44 -4.107,1.533 -6.702,1.7 -0.022,-0.189 0.113,-0.222 0.1,-0.4 L 18.537144,196.33503 c -0.465,-0.459 0.192856,-4.30503 -0.04814,-4.98403 -0.377,-1.061 -0.11,-2.162 -0.2,-3.201 -0.087,-0.989 -0.549,-1.999 -0.7,-3.001 -0.354,-2.344 0.078,-4.815 -0.1,-7.301 -0.122,-1.695 -0.69,-3.289 -0.801,-4.902 z m 90.121,23.506 c 0.504,-1.809 0.504,-6.597 0,-8.302 -0.571,-1.93 -1.964,-3.264 -3.301,-4.601 -0.863,-0.863 -1.717,-1.842 -2.7,-2.401 -1.999,-1.136 -5.444,-1.27 -8.502,-1 -3.225,0.285 -4.648,1.747 -6.402,3.501 -0.854,0.855 -1.782,1.788 -2.3,2.7 -0.91,1.601 -1.101,3.308 -1.101,6.002 0,3.194 0.217,4.47 1.4,6.401 0.896,1.462 3.048,3.635 4.901,4.701 0.595,0.343 1.154,0.732 1.7,0.901 1.148,0.355 2.658,0.3 4.001,0.3 1.252,0 2.912,0.084 4.101,-0.2 2.25,-0.539 3.438,-1.838 5.001,-3.401 1.405,-1.404 2.647,-2.611 3.202,-4.601 z" />

<path
fill="#f73d95"
d="m 38.993,356.588 12.905999,-17.90295 c 2.567,0.555 4.338,2.563 6.502,3.901 2.129,1.318 4.348,2.55 6.601,3.801 0.61,0.338 1.146,0.514 1.801,0.802 0.554,0.241 1.041,0.691 1.6,1 2.322,1.272 4.912,2.04 7.502,2.899 1.259,0.417 2.271,1.296 3.501,1.8 0.727,0.298 1.611,0.525 2.4,0.802 0.817,0.284 1.707,0.56 2.501,0.699 0.683,0.12 1.387,-10e-4 2.1,0.101 1.785,0.251 3.485,1.324 5.401,1.5 2.228,0.206 3.844,-0.429 5.102,-1 1.335,-0.607 2.249,-1.037 3.300001,-1.801 0.534,-0.388 1.167,-0.653 1.602,-1 0.741,-0.592 1.381,-1.554 2.1,-2.301 0.785,-0.814 1.587,-1.74 2.001,-2.501 0.366,-0.672 0.403,-1.185 0.7,-1.8 0.412,-0.855 0.983,-1.626 1.4,-2.501 0.427,-0.894 0.767,-1.913 1.1,-2.901 0.51,-1.507 0.759,-3.212 1.201,-4.801 0.141,-0.509 0.404,-1.013 0.5,-1.5 0.139,-0.712 0.164,-1.563 0.3,-2.399 0.125,-0.773 0.229,-1.592 0.3,-2.401 0.076,-0.85 0.253,-1.878 0,-2.501 -0.26,-0.638 -1.09,-1.083 -1.8,-1 -1.233,0.145 -1.213,1.481 -1.301,2.501 -0.113,1.309 -0.149,2.677 -0.6,3.301 -0.907,1.253 -4.57,1.28 -6.401,1.7 -0.723,0.166 -1.405001,0.522 -2.102001,0.6 -1.165,0.131 -2.414,0 -3.601,0 -1.222,0 -2.588,0.124 -3.701,0 -0.667,-0.073 -1.334,-0.411 -2.1,-0.6 -0.713,-0.176 -1.522,-0.263 -2.201,-0.5 -2.857,-0.997 -4.354,-2.638 -6.901,-4.001 -1.186,-0.635 -2.938,-1.177 -3.301,-2.201 -0.37,-1.047 -0.1,-2.893 -0.1,-4.501 0,-1.563 0.138,-3.286 0,-4.701 -0.117,-1.196 -0.68,-1.876 -0.8,-2.899 -0.183,-1.533 0,-3.29 0,-4.902 l 0,-9.802 c 0,-1.763 0.186,-3.495 0,-5.001 -0.114,-0.921 -0.674,-1.578 -0.801,-2.5 -0.276,-2.008 0,-3.563 0,-5.902 0,-1.812 0.269,-4.633 -1,-4.9 -2.145,-0.453 -1.601,3.433 -1.601,5.2 0,2.504 -0.175,4.953 0,6.702 0.11,1.096 0.696,2.056 0.8,2.9 0.186,1.495 0,3.212 0,4.901 l 0,4.901 c 0,3.472 -0.299,7.027 0,9.802 0.104,0.963 0.695,1.835 0.801,2.601 0.148,1.082 0,2.389 0,3.601 0,1.17 0.167,2.43 -0.4,3.201 -1.004,0.307 -1.916,-0.411 -2.8,-0.8 -1.805,-0.795 -3.654,-1.435 -5.202,-2.501 -1.895,-1.307 -2.845,-1.898 -3.801,-4.102 -0.97,-2.232 -1.458,-5.147 -0.9,-8.401 0.114,-0.669 0.48,-1.383 0.6,-2.101 0.148,-0.886 0.064,-1.765 0.2,-2.601 0.125,-0.768 0.47,-1.494 0.6,-2.3 0.223,-1.384 0.256,-2.778 0.5,-4.201 0.123,-0.72 0.234,-1.405 0.3,-2.102 0.074,-0.781 0.022,-1.54 0.1,-2.3 0.104,-1.012 0.454,-2.073 0.6,-3.101 0.166,-1.165 0.147,-2.359 0.3,-3.501 0.146,-1.084 0.459,-2.111 0.6,-3.2 0.154,-1.182 -0.017,-2.421 0.1,-3.701 0.102,-1.101 0.499,-2.216 0.601,-3.401 0.109,-1.271 0.067,-2.604 0.2,-3.9 0.086,-0.844 0.489,-1.66 0.6,-2.5 0.237,-1.807 0.038,-3.645 0.2,-5.402 0.057,-0.617 0.268,-1.176 0.4,-1.8 0.424,-2.001 0.21,-4.133 0.399,-6.201 0.121,-1.318 0.582,-2.596 0.7,-3.9 0.138,-1.521 -0.01,-3.069 0.1,-4.602 0.049,-0.678 0.256,-1.312 0.4,-2.001 0.463,-2.205 0.215,-4.538 0.4,-6.801 0.084,-1.021 0.455,-2.018 0.601,-3.201 0.136,-1.117 0.185,-2.312 0.2,-3.701 0.013,-1.235 0.28,-2.174 0.5,-3.4 0.244,-1.371 0.122,-2.854 0.5,-3.401 0.426,-0.617 1.953,-0.875 2.8,-1.1 1.388,-0.367 2.4,-0.445 3.301,-0.7 6.305,-1.785 12.799,-3.497 18.004,-6.001 1.837,-0.884 3.669,-1.621 5.303001,-2.601 0.815,-0.49 1.571,-1.088 2.399,-1.6 3.42,-2.114 5.858,-4.657 8.603,-7.402 0.56,-0.56 1.719,-1.756 2.301,-1.7 0.464,0.044 1.232,1.057 1.7,1.9 1.419,2.565 2.506,5.08 3.601,7.402 1.66,3.519 3.278,6.646 4.801,9.802 1.62,3.358 2.983,6.746 4.602,10.002 1.67,3.363 2.893,6.882 4.501,10.203 0.396,0.818 0.635,1.731 1,2.6 0.373,0.889 0.793,1.707 1.1,2.602 0.295,0.856 0.743,1.65 1.102,2.5 0.376,0.895 0.635,1.827 1,2.701 0.72,1.725 1.364,3.523 2,5.301 1.307,3.655 2.618,7.024 3.801,10.803 1.16,3.707 2.46,7.378 3.301,11.302 0.21,0.981 0.61,1.891 0.8,2.901 0.096,0.508 0.159,1.02 0.3,1.5 0.144,0.487 0.411,0.93 0.5,1.401 0.16,0.845 0.035,1.771 0.2,2.699 0.137,0.771 0.486,1.53 0.601,2.302 0.13,0.87 0.052,1.811 0.2,2.699 0.14,0.836 0.525,1.604 0.601,2.401 0.212,2.259 -0.154,3.995 -0.5,5.501 -0.157,0.681 -0.229,1.369 -0.401,2.001 -0.837,3.07 -1.801,4.603 -3.7,6.501 -0.851,0.85 -1.729,1.769 -2.601,2.501 -0.907,0.763 -2.013,1.303 -2.901,2.101 -1.936,1.739 -3.776,2.771 -5.9,4.2 -2.153,1.448 -4.054,2.49 -6.501,3.701 -0.971,0.479 -2.783,1.165 -3.102,2 -0.404,1.063 0.173,3.236 0.2,4.801 0.03,1.729 -0.157,3.455 -0.2,5.002 -0.021,0.768 -0.074,1.556 -0.2,2.4 -0.245,1.653 -0.367,3.221 -0.5,4.701 -0.075,0.85 -0.085,1.695 -0.199,2.402 -0.187,1.135 -0.771,2.446 -0.901,3.5 -0.079,0.647 0.078,1.508 0,2 -0.104,0.668 -0.598,1.496 -0.9,2.3 -0.31,0.825 -0.428,1.731 -0.699,2.501 -0.593,1.672 -1.158,3.341 -1.7,4.701 -0.323,0.81 -0.877,1.718 -1.401,2.601 -0.498,0.84 -0.957,1.723 -1.5,2.5 -0.531,0.762 -0.997,1.716 -1.6,2.401 -0.33,0.374 -0.717,0.623 -1.001,1 -0.302,0.401 -0.469,0.856 -0.8,1.199 -0.382,0.396 -0.919,0.756 -1.4,1.201 -0.466,0.433 -0.996,0.854 -1.5,1.2 -1.123,0.771 -2.191,1.671 -3.201,2.2 -0.59,0.31 -1.354,0.585 -2.101,0.9 -0.703,0.298 -1.503,0.619 -2.2,0.801 -0.805,0.209 -1.602,0.244 -2.401001,0.399 -1.112,0.22 -2.107,0.58 -3.1,0.7 -2.471,0.298 -4.993,0.049 -7.302,-0.1 -1.088,-0.07 -2.036,-0.416 -3.201,-0.601 -1.067,-0.169 -2.146,-0.104 -3.201,-0.3 -1.281,-0.238 -2.593,-0.892 -4,-1.3 -2.805,-0.814 -5.321,-1.744 -7.802,-2.801 -1.213,-0.518 -2.373,-1.183 -3.602,-1.701 -0.64,-0.271 -1.373,-0.334 -2,-0.601 -1.866,-0.791 -3.571,-1.794 -5.402,-2.6 -1.211,-0.534 -2.539,-0.956 -3.701,-1.601 -0.561,-0.312 -1.027,-0.759 -1.6,-1 -0.67,-0.283 -1.255,-0.474 -1.9,-0.801 -2.138,-1.083 -4.721,-2.192 -7.002,-3.601 -0.521,-0.321 -1.1,-0.613 -1.7,-0.9 -0.62,-0.296 -1.118,-0.649 -1.701,-1 -1.166579,-0.9367 -2.85673,-1.27335 -3.706999,-2.29905 z" />

<path
fill="#f73d95"
d="m 44.895,124.935 c 0.27,2.829 1.295,4.835 -0.8,5.802 -0.389,0.179 -0.965,0.447 -1.601,0.3 -1.21,-0.28 -1.143,-1.939 -1.6,-3.501 -0.4,-1.369 -0.888,-2.665 -1.1,-3.901 -0.26,-1.51 -0.663,-2.824 -1.001,-4.101 -0.171,-0.648 -0.458,-1.264 -0.6,-1.9 -0.14,-0.631 -0.093,-1.481 -0.3,-2.201 -0.397,-1.382 -1.389,-2.786 -2.1,-4.201 -1.414,-2.812 -2.754,-5.524 -4.201,-8.402 -0.699,-1.389 -1.565,-2.832 -2.101,-4.201 -0.257,-0.656 -0.337,-1.34 -0.6,-2 -1.146,-2.879 -2.756,-5.527 -4.101,-8.202 -0.687,-1.367 -1.311,-2.83 -2,-4.201 -0.678,-1.348 -1.57,-2.645 -2.101,-4.001 -0.259,-0.663 -0.336,-1.446 -0.6,-2.1 C 18.88,75.132 17.059,72.148 15.588,69.223 14.087,66.238 12.523,63.275 11.387,60.121 10.26,56.991 8.436,54.103 6.986,51.219 6.237,49.728 5.526,48.214 4.786,46.718 3.938,45.003 2.82,43.307 2.385,41.416 c -0.31,-1.351 -0.344,-2.979 -0.4,-4.601 -0.054,-1.572 -0.164,-3.202 0,-4.801 0.31,-3.014 0.311,-6.359 0.3,-9.702 -0.006,-1.913 0.335,-4.664 0.4,-6.901 0.063,-2.151 0.303,-4.085 0.4,-6.902 0.073,-2.108 -0.352,-3.884 1,-4.301 0.952,-0.293 2.281,0.575 3.401,1.1 2.231,1.046 3.307,0.981 4.801,2.601 1.347,1.459 2.682,3.236 3.801,5.001 0.777,1.226 1.737,2.22 2.601,3.301 0.878,1.098 1.64,2.307 2.4,3.4 1.525,2.193 3.369,4.418 5.002,6.702 0.733,1.027 1.641,2.219 2.5,3.401 0.998,1.373 1.986,2.256 2.501,3.801 0.337,1.011 0.44,2.169 0.7,3.4 0.227,1.079 0.48,2.249 0.7,3.401 0.447,2.341 0.638,4.846 1,7.202 0.201,1.305 0.822,2.689 1,4.001 0.081,0.589 0.016,1.123 0.1,1.7 0.065,0.443 0.203,0.916 0.301,1.4 0.396,1.969 0.582,3.921 1,5.802 0.224,1.011 0.133,2.083 0.3,3.1 0.127,0.774 0.546,1.622 0.7,2.501 0.168,0.96 0.213,1.987 0.3,3.001 0.083,0.965 0.413,1.892 0.5,2.7 0.212,1.968 0.067,3.879 0.3,5.702 0.113,0.877 0.29,1.669 0.3,2.5 0.034,2.818 0.588,5.372 0.8,8.002 0.14,1.719 0.625,3.339 0.901,5.101 0.118,0.755 0.083,1.536 0.2,2.301 0.191,1.26 0.578,2.418 0.7,3.701 0.24,2.538 0.772,5.002 1.2,7.601 0.325,1.976 0.616,4.157 1,6.102 0.471,2.381 0.581,4.862 1.001,7.401 0.229,1.389 0.601,2.729 0.8,4.801 z M 29.79,96.329 c -19.734667,190.224 -9.867333,95.112 0,0 z" />

<path
fill="#c2baba"
d="m 17.989,226.959 c -1.525,-0.139 -3.081,-0.018 -4.101,-0.801 -0.057,-1.257 0.205,-2.549 0.5,-3.8 0.847,-3.593 1.613,-6.821 2.5,-10.704 0.256,-1.119 0.366,-2.462 0.601,-3.901 0.207,-1.276 0.55,-2.552 0.6,-3.8 0.055,-1.386 0.1,-2.771 0.1,-4.301 0,-3.137 0.146,-5.025 2.8,-5.502 l 1.001,0 c 2.094,-0.011 4.405,-0.661 6.201,-1.2 1.85,-0.556 3.725,-1.034 5.601,-1.4 2.092,-0.409 4.396,-0.444 6.502,-0.3 4.13,0.281 7.438,1.937 9.902,4.1 1.241,1.09 2.524,2.249 3.501,3.501 1.534,1.967 2.484,4.513 3.301,7.202 0.287,0.947 0.274,1.887 0.5,3.001 0.241,1.19 0.82,2.324 1.2,3.5 0.373,1.156 0.614,2.454 0.9,3.701 0.557,2.424 1.11,5.096 1.1,8.202 0.013,0.179 -0.122,0.211 -0.1,0.4 -1.077,1.194 -2.604,1.746 -3.901,2.501 -3.923,2.283 -7.216,5.52 -10.902,8.203 -4.27,3.104 -8.871,5.951 -14.103,8.301 -1.677,0.752 -3.715,1.877 -6.102,1.7 0.187,-1.042 1.173,-1.569 1.901,-2.102 0.717,-0.523 1.519,-1.037 2.3,-1.6 1.354,-0.976 3.632,-2.201 4.101,-3.8 0.3,-1.021 0.124,-2.704 0.1,-3.902 -0.028,-1.417 -0.105,-2.744 -0.4,-3.5 -0.869,-2.228 -3.221,-2.543 -6.401,-2.901 -2.945,-0.33 -6.201,-0.526 -9.202,-0.798 z" />

<path
fill="#ffffff"
d="M19.088,226.158c-1.535-0.124-3.033-0.091-4.201-0.601c-0.162-1.013,0.164-2.051,0.4-3 c0.73-2.94,1.332-5.829,2-8.802c0.886-3.942,1.602-7.983,1.801-12.503c0.067-1.529-0.386-3.659,0.3-4.701 c0.551-0.837,2.675-1.06,4.001-1.301c1.712-0.31,3.154-0.661,4.201-1c2.862-0.927,5.718-1.396,8.402-2 c0.139-0.032,0.185-0.088,0.3-0.1c4.146-0.428,8.22,0.689,10.902,2.3c1.203,0.723,2.686,1.986,3.901,3.201 c1.182,1.182,2.56,2.756,3.201,4.101c0.224,0.47,0.296,1.041,0.5,1.6c0.178,0.488,0.504,0.913,0.7,1.401 c0.418,1.036,0.626,2.2,0.8,3.3c0.38,2.388,1.441,4.491,1.901,6.402c0.191,0.797,0.204,1.659,0.4,2.5 c0.173,0.743,0.366,1.474,0.5,2.301c0.255,1.573,0.793,3.963,0.5,5.001c-0.311,1.103-2.419,1.728-3.701,2.501 c-1.47,0.888-2.572,1.824-3.601,2.601c-2.576,1.944-4.692,3.657-7.001,5.4c-4.894,3.695-9.652,6.718-15.904,8.902 c0.677-1.069,1.831-1.725,2.801-2.5c0.934-0.746,2.091-1.566,2.5-2.701c0.371-1.026,0.252-2.918,0.201-4.201 c-0.061-1.519-0.041-2.885-0.401-3.9c-0.348-0.985-1.43-2.102-2.4-2.601c-1.069-0.551-2.615-0.629-4.101-0.8 C25.081,226.624,21.889,226.385,19.088,226.158z" />

<path
fill="#c53874"
d="m 30.691,232.16 c 0.459,0.704 0.514,3.602 0.1,4.601 -0.361,0.869 -1.757,1.609 -2.701,2.2 -1.044,0.654 -2.003,1.399 -2.801,2.001 -0.922,0.696 -1.688,1.061 -2.9,1.9 -0.911,0.632 -1.929,1.758 -3.101,1.701 -1.624,-0.079 -2.729,-2.273 -4.101,-3.701 -0.558,-0.58 -1.229,-1.31 -1.9,-2.001 -0.89,-0.916 -1.669,-1.354 -1.801,-2.7 -0.105,-1.079 0.395,-1.924 0.7,-3.102 0.48,-1.85 0.284,-2.704 2.201,-3.101 0.606,-0.125 2.162,-0.161 3.001,-0.1 1.331,0.097 2.527,0.679 4.1,0.801 1.978,0.152 4.008,-0.21 5.702,0.1 0.754,0.139 3.067,0.738 3.501,1.401 z" />

<path
fill="#c2baba"
d="m 8.386,330.982 c -0.17,-0.845 -0.322,-1.627 -0.3,-2.101 0.085,-1.823 1.239,-2.795 2.101,-4.101 1.536,-2.329 2.897,-4.104 4.901,-5.801 0.863,-0.731 1.844,-1.662 2.701,-2.102 1.329,-0.68 2.857,-0.933 4.501,-1.3 0.665,-0.149 1.286,-0.371 1.8,-0.4 0.712,-0.041 1.547,0.155 2.401,0.301 0.849,0.144 1.746,0.204 2.4,0.399 0.626,0.188 1.242,0.586 1.901,1 0.628,0.396 1.349,0.746 1.9,1.101 0.92,0.593 1.674,1.521 2.601,2.301 0.922,0.775 1.877,1.459 2.7,2.3 0.782,0.799 1.429,1.793 2.201,2.701 0.759,0.894 1.551,1.806 2.3,2.701 1.403,1.676 2.923,3.549 4.701,5.2 1.463,1.358 4.21,3.514 4.701,5.501 -0.93401,1.4704 -1.818291,3.43298 -2.3,4.201 -0.683,1.068 -1.715,2.143 -2.601,3.303 -0.858,1.121 -1.553,2.399 -2.4,3.5 -0.38,0.492 -0.965,0.933 -1.401,1.5 -1.471619,1.83264 -2.62308,3.91257 -4.163063,5.41481 -1.59,0.148 -2.736937,-1.04781 -3.937937,-1.81381 -0.568,-0.363 -1.281,-0.563 -1.901,-0.9 -1.509,-0.824 -3.068,-1.848 -4.401,-2.7 -1.451,-0.929 -2.984,-1.83 -4.301,-2.802 -1.097,-0.809 -2.216,-1.548 -3.301,-2.3 -1.123,-0.779 -2.048,-1.756 -3.1,-2.601 -1.064,-0.854 -2.133,-1.633 -3.101,-2.601 -1.627,-1.628 -3.161,-3.023 -4.501,-4.801 -1.183,-1.567 -1.647,-2.849 -2.101,-5.1 z" />

<path
fill="#ffffff"
d="M9.586,332.583c-0.153-0.495-0.161-1.287-0.3-2.001c-0.146-0.748-0.357-1.367-0.3-1.9 c0.119-1.123,1.233-2.294,2-3.4c1.558-2.247,2.448-3.592,4.601-5.501c0.921-0.816,1.867-1.731,2.601-2.102 c0.336-0.169,0.87-0.234,1.3-0.399c0.392-0.15,0.748-0.4,1.1-0.5c0.481-0.137,1.046-0.078,1.601-0.2 c0.557-0.122,0.938-0.322,1.6-0.4c0.868-0.102,3.937,0.211,4.901,0.601c0.585,0.235,1.14,0.596,1.8,1 c0.596,0.365,1.305,0.641,1.801,1.001c0.873,0.633,1.637,1.557,2.5,2.3c1.767,1.521,3.084,2.932,4.702,4.801 c2.27,2.624,3.834,4.834,6.601,7.603c0.711,0.711,1.67,1.47,2.501,2.3c0.808,0.809,2.058,1.895,2.1,2.601 c0.052,0.873-0.611,1.436-1.1,2.201c-0.482,0.754-0.737,1.568-1.1,2.1c-0.339,0.496-0.881,0.983-1.301,1.5 c-1.196,1.474-2.129,3.132-3.4,4.803c-0.789,1.036-1.681,1.853-2.701,3.2c-0.32,0.423-0.817,1.033-1.3,1.7 c-0.48,0.66-0.802,1.408-1.401,1.5c-0.623,0.096-1.465-0.473-2.3-1c-0.737-0.465-1.511-0.777-2.101-1.101 c-1.562-0.854-2.803-1.693-3.901-2.5c-0.651-0.48-1.429-0.766-2.1-1.2c-1.86-1.203-3.854-2.601-5.701-3.899 c-1.285-0.905-2.488-2.032-3.601-2.902c-2.301-1.799-4.643-3.951-6.602-6.301C11.093,335.291,10.018,333.978,9.586,332.583z" />

<path
d="M120.212,128.236c-0.522,0.316-1.166,0.975-1.9,0.6c-0.268-1.168,0.759-1.869,1.2-2.6 c0.265-0.441,0.404-0.884,0.7-1.301c0.265-0.371,0.657-0.697,0.899-1.1c0.345-0.573,0.496-1.227,0.8-1.8 c0.555-1.044,1.383-2.003,2.102-3.101c0.333-0.508,0.799-0.999,1.1-1.5c0.466-0.775,0.719-1.631,1.2-2.401 c0.917-1.465,1.989-2.785,2.901-4.301c0.454-0.755,1.062-1.371,1.5-2.1c0.529-0.883,0.805-1.832,1.4-2.701 c0.278-0.406,0.618-0.768,0.9-1.2c0.535-0.821,0.894-1.669,1.7-2.301c0.433-0.338,1.02-0.465,1.501-0.8 c0.65-0.454,1.115-1.224,1.8-1.7c0.428-0.299,0.973-0.403,1.4-0.7c0.707-0.493,1.145-1.244,1.801-1.701 c0.521-0.364,1.122-0.534,1.6-0.9c0.87-0.666,1.487-1.663,2.401-2.3c0.419-0.293,0.964-0.397,1.399-0.701 c0.67-0.467,1.134-1.235,1.801-1.7c0.432-0.301,0.976-0.404,1.4-0.7c0.674-0.47,1.143-1.242,1.8-1.701 c0.439-0.305,0.976-0.403,1.4-0.7c0.677-0.471,1.131-1.233,1.801-1.7c0.509-0.355,1.111-0.526,1.601-0.9 c0.86-0.659,1.502-1.674,2.4-2.301c0.474-0.329,1.047-0.495,1.5-0.8c0.39-0.262,1.263-1.376,1.9-1.2 c1.213,0.334-0.511,3.195-0.7,3.601c-1.28,2.748-2.036,4.386-3.3,6.901c-0.283,0.562-0.652,1.025-0.901,1.6 c-0.252,0.585-0.314,1.294-0.6,1.901c-0.458,0.976-1.152,1.803-1.601,2.8c-0.449,1.002-0.803,2.057-1.3,3.101 c-0.449,0.942-0.902,2.011-1.4,3.001c-1.026,2.041-1.713,3.346-3.602,4.601c-0.419,0.279-0.807,0.513-1.2,0.8 c-1.431,1.046-3.216,1.871-4.7,3.001c-0.549,0.417-1.104,0.823-1.7,1.2c-1.689,1.07-3.547,2.14-5.301,3.401 c-2.815,2.022-5.86,3.684-8.804,5.701c-0.558,0.383-1.033,0.947-1.6,1.3c-1.195,0.745-2.475,1.38-3.602,2.201 C121.378,127.425,120.823,127.866,120.212,128.236z"
fill="#F73D95" />

<path
fill="#f73d95"
d="m 31.892,109.832 c 0.502,0.999 1.501,2.127 1,3.401 -1.692,0.102 -2.503,-1.174 -3.501,-2.101 -0.964,-0.896 -2.063,-1.883 -2.8,-2.9 -0.462,-0.637 -0.733,-1.435 -1.201,-2.101 -0.877,-1.249 -1.794,-2.527 -2.7,-3.901 -1.264,-1.916 -2.723,-3.799 -4.101,-5.801 -1.352,-1.963 -2.505,-3.979 -4.101,-5.801 -0.495,-0.566 -0.972,-1.237 -1.4,-1.901 -0.439,-0.68 -0.877,-1.316 -1.301,-2 C 10.604,84.819 8.948,82.934 7.686,80.925 6.783,79.486 5.666,78.18 5.286,76.825 5.083,76.1 5.063,75.12 4.986,74.224 4.612,69.876 4.191,64.972 3.885,60.421 3.712,57.83 3.037,54.939 3.385,52.419 c 0.056,-0.144 0.156,-0.244 0.3,-0.3 l 0.2,0 c 1.256,1.237 1.819,2.946 2.601,4.501 0.767,1.526 1.779,3.015 2.401,4.601 0.343,0.878 0.413,1.767 0.8,2.601 1.699,3.659 3.844,7.547 5.701,11.302 0.742,1.5 1.704,2.977 2.301,4.501 0.345,0.881 0.425,1.794 0.8,2.601 1.691,3.641 3.853,7.566 5.701,11.302 0.741,1.499 1.706,2.982 2.301,4.501 0.252,0.645 0.346,1.364 0.6,2.001 0.89,2.235 2.138,4.354 3.2,6.501 0.521,1.053 1.058,2.221 1.601,3.301 z" />

<path
fill="#ffffff"
d="m 105.309,187.35 c 1.468,3.069 1.241,7.323 0.1,9.902 -0.404,0.913 -1.209,1.709 -2.101,2.601 -0.77,0.769 -1.542,1.758 -2.4,2.3 -2.998,1.893 -7.648,2.285 -11.003,0.8 -0.895,-0.396 -1.746,-1.246 -2.601,-2.1 -0.842,-0.843 -1.724,-1.487 -2.3,-2.401 -1.723,-2.727 -2.342,-7.52 -0.801,-11.002 0.398,-0.9 1.126,-1.727 2,-2.601 2,-2 3.827,-3.606 7.603,-3.901 1.938,-0.151 4.621,0.155 6.101,0.9 1.12,0.564 2.137,1.636 3.001,2.501 0.965,0.966 1.858,1.865 2.401,3.001 z" />

<path
fill="#c2baba"
d="m 101.708,185.449 c 1.546,1.546 2.8,4.244 2.8,6.902 0,5.49 -4.262,9.702 -9.702,9.702 -2.917,0 -5.325,-1.224 -6.901,-2.801 -1.632,-1.631 -2.77,-4.01 -2.801,-6.801 -0.035,-3.107 1.284,-5.486 2.801,-7.002 1.487,-1.488 3.478,-2.464 6.201,-2.7 3.043,-0.264 5.929,1.029 7.602,2.7 z" />

<path
fill="#784c5b"
d="m 103.008,188.95 c 0.819,2.044 0.787,4.84 0,6.802 -2.38052,4.44598 -7.35083,6.5768 -11.804,4.701 -1.963,-0.869 -3.896,-2.947 -4.601,-4.701 -0.759,-1.891 -0.809,-4.787 0,-6.802 1.002,-2.496 3.705,-4.782 7.002,-5.301 0.065,-0.01 0.135,0.008 0.2,0 3.208,-0.409 5.685,0.917 7.302,2.6 0.661,0.688 1.484,1.661 1.901,2.701 z" />

<path
fill="#301b21"
d="M94.306,184.249c6.182-0.597,10.576,6.427,7.702,11.903c-1.307,2.487-4.347,4.401-7.202,4.401 c-3.367,0-6.274-2.314-7.402-4.801C84.884,190.19,88.975,184.764,94.306,184.249z" />

</svg>
